<?xml version="1.0" encoding="UTF-8" standalone="no"?>
<svg
   width="24"
   height="24"
   viewBox="0 0 24 24"
   fill="none"
   version="1.1"
   id="svg1"
   xmlns="http://www.w3.org/2000/svg"
   xmlns:svg="http://www.w3.org/2000/svg">
  <defs
     id="defs1" />
  <path
     d="M 20.317,4.36639 C 18.7873,3.66451 17.147,3.14739 15.4319,2.85122 15.4007,2.8455 15.3695,2.85979 15.3534,2.88836 15.1424,3.26357 14.9087,3.75307 14.7451,4.13781 12.9004,3.86165 11.0652,3.86165 9.25832,4.13781 9.09465,3.74452 8.85248,3.26357 8.64057,2.88836 8.62448,2.86074 8.59328,2.84646 8.56205,2.85122 6.84791,3.14645 5.20756,3.66356 3.67694,4.36639 3.66368,4.3721 3.65233,4.38163 3.64479,4.39401 0.533392,9.04237 -0.31895,13.5765 0.0991801,18.0544 0.101072,18.0763 0.11337,18.0972 0.130398,18.1105 2.18321,19.6181 4.17171,20.5333 6.12328,21.1399 6.15451,21.1495 6.18761,21.138 6.20748,21.1123 6.66913,20.4819 7.08064,19.8172 7.43348,19.1181 7.4543,19.0772 7.43442,19.0286 7.39186,19.0124 6.73913,18.7648 6.1176,18.4629 5.51973,18.1201 5.47244,18.0925 5.46865,18.0248 5.51216,17.9924 5.63797,17.8982 5.76382,17.8001 5.88395,17.701 c 0.02174,-0.0181 0.05203,-0.0219 0.07758,-0.0105 3.92775,1.7933 8.17997,1.7933 12.06147,0 0.0255,-0.0123 0.0558,-0.0085 0.0785,0.0096 0.1201,0.099 0.246,0.1981 0.3727,0.2923 0.0435,0.0324 0.0407,0.1001 -0.0066,0.1277 -0.5979,0.3495 -1.2194,0.6447 -1.8731,0.8914 -0.0425,0.0162 -0.0615,0.0657 -0.0407,0.1066 0.3605,0.6981 0.772,1.3628 1.2251,1.9933 0.0189,0.0266 0.053,0.0381 0.0842,0.0285 1.961,-0.6066 3.9495,-1.5218 6.0023,-3.0294 0.018,-0.0133 0.0294,-0.0333 0.0313,-0.0552 C 24.3971,12.8784 23.0585,8.38145 20.3482,4.39495 20.3416,4.38163 20.3303,4.3721 20.317,4.36639 Z M 8.02002,15.3278 c -1.18252,0 -2.15689,-1.0856 -2.15689,-2.4189 0,-1.3333 0.95547,-2.419 2.15689,-2.419 1.21085,0 2.17578,1.0952 2.15688,2.419 0,1.3333 -0.95549,2.4189 -2.15688,2.4189 z m 7.97468,0 c -1.1824,0 -2.1568,-1.0856 -2.1568,-2.4189 0,-1.3333 0.9554,-2.419 2.1568,-2.419 1.2109,0 2.1758,1.0952 2.1569,2.419 0,1.3333 -0.946,2.4189 -2.1569,2.4189 z"
     fill="white"
     id="path1"
     style="fill:#5865f2;fill-opacity:1" />
</svg>
