<?xml version="1.0" encoding="UTF-8" standalone="no"?>
<svg
   width="24"
   height="24"
   viewBox="0 0 24 24"
   fill="none"
   version="1.1"
   id="svg1"
   xmlns:xlink="http://www.w3.org/1999/xlink"
   xmlns="http://www.w3.org/2000/svg"
   xmlns:svg="http://www.w3.org/2000/svg">
  <g
     clip-path="url(#clip0_1432_8766)"
     id="g1"
     style="fill:url(#linearGradient8);fill-opacity:1">
    <path
       d="M 24,12 C 24,18.629 18.6194,24 11.9806,24 6.47419,24 1.83871,20.3081 0.416129,15.271 l 4.606451,1.9016 c 0.30968,1.5532 1.68871,2.729 3.33387,2.729 1.89675,0 3.47905,-1.5677 3.39675,-3.5564 l 4.0887,-2.9129 c 2.521,0.0629 4.6355,-1.9791 4.6355,-4.52424 0,-2.49677 -2.0322,-4.52419 -4.5339,-4.52419 -2.5016,0 -4.5338,2.03226 -4.5338,4.52419 V 8.96613 L 8.54516,13.1129 c -0.75,-0.0435 -1.48548,0.1645 -2.10484,0.5855 L 0,11.0371 C 0.493548,4.85806 5.66613,0 11.9806,0 18.6194,0 24,5.37097 24,12 Z M 7.53387,18.2081 6.05806,17.5984 c 0.2712,0.5631 0.73946,1.0073 1.31613,1.2484 1.30162,0.5419 2.79681,-0.0774 3.33871,-1.3742 0.2613,-0.6291 0.2661,-1.321 0.0048,-1.95 C 10.4565,14.8935 9.96774,14.4 9.33871,14.1387 8.71452,13.8774 8.04677,13.8871 7.45645,14.1097 l 1.5242,0.629 c 0.95806,0.3968 1.41285,1.4952 1.01129,2.4532 -0.40162,0.9629 -1.5,1.4129 -2.45807,1.0162 z m 8.40963,-6.2855 c -1.6645,0 -3.0193,-1.3549 -3.0193,-3.01454 0,-1.65967 1.3548,-3.01451 3.0193,-3.01451 1.6646,0 3.0194,1.35484 3.0194,3.01451 0,1.65964 -1.35,3.01454 -3.0194,3.01454 z m 0.0049,-0.7549 c 1.2532,0 2.2693,-1.0161 2.2693,-2.26447 0,-1.25323 -1.0161,-2.26452 -2.2693,-2.26452 -1.2532,0 -2.2694,1.01613 -2.2694,2.26452 0.0049,1.24837 1.021,2.26447 2.2694,2.26447 z"
       fill="white"
       id="path1"
       style="fill:url(#linearGradient2);fill-opacity:1" />
  </g>
  <defs
     id="defs1">
    <linearGradient
       id="linearGradient6">
      <stop
         style="stop-color:#1b2838;stop-opacity:1;"
         offset="0.24921136"
         id="stop7" />
      <stop
         style="stop-color:#19a3f0;stop-opacity:1;"
         offset="1"
         id="stop8" />
    </linearGradient>
    <linearGradient
       id="linearGradient1">
      <stop
         style="stop-color:#1b2838;stop-opacity:1;"
         offset="0"
         id="stop1" />
      <stop
         style="stop-color:#1b2838;stop-opacity:0;"
         offset="1"
         id="stop2" />
    </linearGradient>
    <clipPath
       id="clip0_1432_8766">
      <rect
         width="24"
         height="24"
         fill="#ffffff"
         id="rect1"
         x="0"
         y="0" />
    </clipPath>
    <linearGradient
       xlink:href="#linearGradient6"
       id="linearGradient8"
       x1="12.000001"
       y1="-9.6690371e-07"
       x2="12.000001"
       y2="24.000002"
       gradientUnits="userSpaceOnUse" />
    <linearGradient
       xlink:href="#linearGradient6"
       id="linearGradient2"
       gradientUnits="userSpaceOnUse"
       x1="12.000001"
       y1="-9.6690371e-07"
       x2="12.000001"
       y2="24.000002" />
  </defs>
</svg>
