<?xml version="1.0" encoding="UTF-8" standalone="no"?>
<svg
   width="24"
   height="24"
   viewBox="0 0 24 24"
   fill="none"
   version="1.1"
   id="svg1"
   xmlns="http://www.w3.org/2000/svg"
   xmlns:svg="http://www.w3.org/2000/svg">
  <g
     clip-path="url(#clip0_1432_8793)"
     id="g1"
     style="fill:#1da1f2;fill-opacity:1">
    <path
       d="M 23.954,4.38171 C 23.069,4.78054 22.124,5.05224 21.129,5.1763 22.143,4.54985 22.923,3.56252 23.292,2.38448 22.341,2.9535 21.287,3.36771 20.165,3.5984 19.269,2.61516 17.992,2 16.574,2 c -2.717,0 -4.92,2.25868 -4.92,5.04127 0,0.39985 0.045,0.78433 0.127,1.1524 C 7.691,7.9958 4.066,5.98216 1.64,2.93812 1.213,3.67837 0.974,4.53858 0.974,5.47568 c 0,1.75321 0.87,3.2942 2.188,4.19951 C 2.355,9.64854 1.596,9.42093 0.934,9.04363 v 0.06254 c 0,2.44523 1.693,4.48453 3.946,4.94903 -0.413,0.1138 -0.849,0.1753 -1.296,0.1753 -0.314,0 -0.615,-0.0308 -0.916,-0.0882 0.631,2.0024 2.445,3.4624 4.604,3.5034 C 5.592,18.998 3.463,19.8039 1.17,19.8039 0.78,19.8039 0.391,19.7803 0,19.7352 2.189,21.1644 4.768,22 7.557,22 c 9.054,0 13.999,-7.6854 13.999,-14.33947 0,-0.21428 0,-0.43061 -0.015,-0.64592 0.961,-0.70641 1.8,-1.59943 2.46,-2.6124 z"
       fill="white"
       id="path1"
       style="fill:#1da1f2;fill-opacity:1" />
  </g>
  <defs
     id="defs1">
    <clipPath
       id="clip0_1432_8793">
      <rect
         width="24"
         height="24"
         fill="#ffffff"
         id="rect1"
         x="0"
         y="0" />
    </clipPath>
  </defs>
</svg>
